<?xml version="1.0" encoding="UTF-8" standalone="no"?><!DOCTYPE svg PUBLIC "-//W3C//DTD SVG 1.1//EN" "http://www.w3.org/Graphics/SVG/1.1/DTD/svg11.dtd"><svg width="100%" height="100%" viewBox="0 0 179 24" version="1.1" xmlns="http://www.w3.org/2000/svg" xmlns:xlink="http://www.w3.org/1999/xlink" xml:space="preserve" xmlns:serif="http://www.serif.com/" style="fill-rule:evenodd;clip-rule:evenodd;stroke-linejoin:round;stroke-miterlimit:1.41421;"><text x="0.012px" y="21.557px" style="font-family:'ArialMT', 'Arial', sans-serif;font-size:8px;fill:#fff;">A<tspan x="5.066px 7.449px 11.609px 16.218px 20.378px 24.987px 27.811px 29.749px 32.131px 36.291px 38.674px 42.834px 47.443px 54.267px 58.877px 63.486px 68.095px 72.255px 74.638px 79.247px 82.071px 86.68px 90.84px 92.778px 97.387px 99.324px 103.933px 108.542px 110.925px 116.862px 121.472px 124.296px 128.456px 130.838px 132.776px 137.385px 143.322px 145.705px 149.865px 154.474px 156.412px 161.021px 163.403px 165.341px 169.95px 174.559px " y="21.557px 21.557px 21.557px 21.557px 21.557px 21.557px 21.557px 21.557px 21.557px 21.557px 21.557px 21.557px 21.557px 21.557px 21.557px 21.557px 21.557px 21.557px 21.557px 21.557px 21.557px 21.557px 21.557px 21.557px 21.557px 21.557px 21.557px 21.557px 21.557px 21.557px 21.557px 21.557px 21.557px 21.557px 21.557px 21.557px 21.557px 21.557px 21.557px 21.557px 21.557px 21.557px 21.557px 21.557px 21.557px 21.557px "> security company providing workflow solutions</tspan></text><text x="28.88px" y="10.92px" style="font-family:'ArialMT', 'Arial', sans-serif;font-size:15px;fill:#fff;">M<tspan x="41.675px 50.318px 58.96px 62.592px 71.235px 75.702px 86.007px 94.649px 103.292px 108.587px 116.387px 125.029px 130.324px 138.124px 142.592px 147.059px 155.701px 163.501px " y="10.92px 10.92px 10.92px 10.92px 10.92px 10.92px 10.92px 10.92px 10.92px 10.92px 10.92px 10.92px 10.92px 10.92px 10.92px 10.92px 10.92px 10.92px ">edia Sourcery Inc.</tspan></text></svg>