<?xml version="1.0" encoding="UTF-8" standalone="no"?><!DOCTYPE svg PUBLIC "-//W3C//DTD SVG 1.1//EN" "http://www.w3.org/Graphics/SVG/1.1/DTD/svg11.dtd"><svg width="100%" height="100%" viewBox="0 0 223 36" version="1.1" xmlns="http://www.w3.org/2000/svg" xmlns:xlink="http://www.w3.org/1999/xlink" xml:space="preserve" xmlns:serif="http://www.serif.com/" style="fill-rule:evenodd;clip-rule:evenodd;stroke-linejoin:round;stroke-miterlimit:1.41421;"><rect id="MSI-Logo" serif:id="MSI Logo" x="0" y="0" width="222.929" height="35.25" style="fill:none;"/><text x="13.202px" y="28.261px" style="font-family:'ArialMT', 'Arial', sans-serif;font-size:8px;fill:#fff;">A<tspan x="18.256px 20.639px 24.799px 29.408px 33.568px 38.177px 41.001px 42.939px 45.321px 49.481px 51.864px 56.024px 60.633px 67.457px 72.066px 76.676px 81.285px 85.445px 87.827px 92.437px 95.261px 99.87px 104.03px 105.967px 110.577px 112.514px 117.123px 121.732px 124.115px 130.052px 134.662px 137.486px 141.646px 144.028px 145.966px 150.575px 156.512px 158.895px 163.055px 167.664px 169.601px 174.211px 176.593px 178.531px 183.14px 187.749px " y="28.261px 28.261px 28.261px 28.261px 28.261px 28.261px 28.261px 28.261px 28.261px 28.261px 28.261px 28.261px 28.261px 28.261px 28.261px 28.261px 28.261px 28.261px 28.261px 28.261px 28.261px 28.261px 28.261px 28.261px 28.261px 28.261px 28.261px 28.261px 28.261px 28.261px 28.261px 28.261px 28.261px 28.261px 28.261px 28.261px 28.261px 28.261px 28.261px 28.261px 28.261px 28.261px 28.261px 28.261px 28.261px 28.261px "> security company providing workflow solutions</tspan></text><text x="13.403px" y="17.632px" style="font-family:'ArialMT', 'Arial', sans-serif;font-size:15px;fill:#fff;">M<tspan x="26.198px 34.841px 43.483px 47.115px 55.758px 60.225px 70.53px 79.172px 87.815px 93.11px 100.91px 109.552px 114.847px 122.647px 127.115px 131.582px 140.224px 148.024px " y="17.632px 17.632px 17.632px 17.632px 17.632px 17.632px 17.632px 17.632px 17.632px 17.632px 17.632px 17.632px 17.632px 17.632px 17.632px 17.632px 17.632px 17.632px ">edia Sourcery Inc.</tspan></text></svg>