<svg width="100%" height="100%" viewBox="0 0 192 36" version="1.1" xmlns="http://www.w3.org/2000/svg" xmlns:xlink="http://www.w3.org/1999/xlink" xml:space="preserve" xmlns:serif="http://www.serif.com/" style="fill-rule:evenodd;clip-rule:evenodd;stroke-linecap:round;stroke-linejoin:round;stroke-miterlimit:1.5;"><rect id="MSI-Logo" serif:id="MSI Logo" x="0" y="0" width="191.25" height="35.25" style="fill:none;"/><clipPath id="_clip1"><rect id="MSI-Logo1" serif:id="MSI Logo" x="0" y="0" width="191.25" height="35.25"/></clipPath><g clip-path="url(#_clip1)"><text x="51.857px" y="22.277px" style="font-family:'Arial-BoldItalicMT', 'Arial', sans-serif;font-weight:700;font-style:italic;font-size:15px;fill:#0d0d0d;">MEDIA<tspan x="99.633px 103.8px " y="22.277px 22.277px "> S</tspan>OURCER<tspan x="178.537px " y="22.277px ">Y</tspan></text><path id="M" d="M0,35.25l5.919,-35.25l13.324,0l5.271,18.535l4.88,-18.535l12.014,0c-1.693,4.206 -2.686,8.994 -3.213,13.574c0.272,3.499 1.053,3.301 2.692,6.105c1.004,1.672 -0.932,9.161 -4.556,15.571l-0.86,0l-1.578,-17.625l-5.797,17.625l-7.628,0l-5.769,-18.824l-1.539,18.824l-13.16,0Z" style="fill:#0d0d0d;stroke:#fff;stroke-width:0.5px;"/><path id="S" d="M42.426,0l6.193,35.25l-10.38,0c3.066,-5.463 6.011,-10.798 5.23,-14.516c-0.319,-1.517 -2.98,-2.997 -2.716,-6.875c0.297,-4.364 0.927,-10.321 1.673,-13.859Z" style="fill:#eb001d;stroke:#eb001d;stroke-width:0.5px;"/></g></svg>