<?xml version="1.0" encoding="UTF-8" standalone="no"?><!DOCTYPE svg PUBLIC "-//W3C//DTD SVG 1.1//EN" "http://www.w3.org/Graphics/SVG/1.1/DTD/svg11.dtd"><svg width="100%" height="100%" viewBox="0 0 193 36" version="1.1" xmlns="http://www.w3.org/2000/svg" xmlns:xlink="http://www.w3.org/1999/xlink" xml:space="preserve" xmlns:serif="http://www.serif.com/" style="fill-rule:evenodd;clip-rule:evenodd;stroke-linejoin:round;stroke-miterlimit:1.41421;"><rect id="MSI-Logo" serif:id="MSI Logo" x="0" y="0" width="192.008" height="35.25" style="fill:none;"/><text x="48.083px" y="22.828px" style="font-family:'Arial-BoldItalicMT', 'Arial', sans-serif;font-weight:700;font-style:italic;font-size:16px;fill:#929292;">M<tspan x="61.731px 72.723px 84.597px 89.363px 100.644px 105.409px 116.401px 129.166px 141.041px 152.915px 163.907px " y="22.828px 22.828px 22.828px 22.828px 22.828px 22.828px 22.828px 22.828px 22.828px 22.828px 22.828px ">EDIA SOUCER</tspan>Y</text><path id="M" d="M3.717,32.337l4.941,-29.424l11.122,0l4.399,15.472l4.074,-15.472l10.029,0c-1.414,3.511 -2.243,7.508 -2.682,11.331c0.226,2.92 0.878,2.755 2.247,5.096c0.838,1.395 -0.779,7.646 -3.803,12.997l-0.719,0l-1.316,-14.712l-4.839,14.712l-6.367,0l-4.816,-15.713l-1.285,15.713l-10.985,0Z" style="fill:#929292;"/><path id="S" d="M39.131,2.913l5.169,29.424l-8.664,0c2.559,-4.56 5.018,-9.013 4.366,-12.117c-0.267,-1.266 -2.487,-2.502 -2.267,-5.739c0.247,-3.642 0.773,-8.614 1.396,-11.568Z" style="fill:#eb001d;"/></svg>