<?xml version="1.0" encoding="UTF-8" standalone="no"?><!DOCTYPE svg PUBLIC "-//W3C//DTD SVG 1.1//EN" "http://www.w3.org/Graphics/SVG/1.1/DTD/svg11.dtd"><svg width="100%" height="100%" viewBox="0 0 41 30" version="1.1" xmlns="http://www.w3.org/2000/svg" xmlns:xlink="http://www.w3.org/1999/xlink" xml:space="preserve" xmlns:serif="http://www.serif.com/" style="fill-rule:evenodd;clip-rule:evenodd;stroke-linejoin:round;stroke-miterlimit:1.41421;"><path id="M" d="M0,29.424l4.941,-29.424l11.122,0l4.399,15.472l4.074,-15.472l10.028,0c-1.413,3.511 -2.242,7.508 -2.682,11.331c0.227,2.92 0.879,2.755 2.247,5.096c0.838,1.395 -0.778,7.646 -3.803,12.997l-0.718,0l-1.317,-14.712l-4.839,14.712l-6.367,0l-4.815,-15.713l-1.285,15.713l-10.985,0Z" style="fill:#929292;"/><path id="S" d="M35.414,0l5.169,29.424l-8.664,0c2.559,-4.56 5.018,-9.013 4.365,-12.117c-0.266,-1.266 -2.487,-2.502 -2.266,-5.739c0.247,-3.642 0.773,-8.614 1.396,-11.568Z" style="fill:#eb001d;"/></svg>